# xmcd CD database file
#
# Track frame offsets:
#	150
#	12699
#	26186
#	39883
#	55700
#	69009
#	80766
#	92355
#	105164
#	118475
#
# Disc length: 1768 seconds
#
# Revision: 0
# Processed by: cddbd v1.5PL3 Copyright (c) Steve Scherf et al.
# Submitted via: CDex 1.51
#
DISCID=7506e60a
DTITLE=Reyna Adriana - Sentimiento Mexicano
DYEAR=1900
DGENRE=Español
TTITLE0=Que ironia
TTITLE1=Leñas de pirul
TTITLE2=Tristes recuerdos
TTITLE3=Cielo rojo
TTITLE4=Urge
TTITLE5=Cancion mexicana
TTITLE6=La tequilera
TTITLE7=Fue un placer conocerte
TTITLE8=Aires del Mayab
TTITLE9=Pelea de gallos
EXTD=
EXTT0=
EXTT1=
EXTT2=
EXTT3=
EXTT4=
EXTT5=
EXTT6=
EXTT7=
EXTT8=
EXTT9=
PLAYORDER=
